<?xml version="1.0" encoding="iso-8859-1"?>
<!-- Generator: Adobe Illustrator 19.0.0, SVG Export Plug-In . SVG Version: 6.00 Build 0)  -->
<svg version="1.1" id="Layer_1" xmlns="http://www.w3.org/2000/svg" xmlns:xlink="http://www.w3.org/1999/xlink" x="0px" y="0px"
	 viewBox="0 0 502 502" style="enable-background:new 0 0 502 502;" xml:space="preserve">
<g>
	<g>
		<g>
			<path d="M500.576,378.022L389.846,87.439c-1.478-3.877-5.194-6.438-9.343-6.439c-0.001,0-0.001,0-0.002,0
				c-4.147,0-7.864,2.56-9.343,6.435l-40.108,105.1L260.112,6.438C258.635,2.562,254.917,0,250.769,0s-7.866,2.562-9.344,6.438
				l-70.706,185.488L130.842,87.435C129.365,83.56,125.648,81,121.5,81c0,0-0.001,0-0.002,0c-4.148,0.001-7.865,2.563-9.342,6.439
				L1.423,378.021c-1.171,3.073-0.756,6.526,1.11,9.234c1.866,2.709,4.945,4.326,8.234,4.326H111.5v0.001v75.994
				c0,5.522,4.477,10,10,10s10-4.478,10-10v-75.994h109.268V446c0,5.522,4.477,10,10,10c5.522,0,10-4.478,10-10v-54.418H370.5
				v75.994c0,5.522,4.478,10,10,10c5.522,0,10-4.478,10-10v-75.994h100.732c3.289,0,6.368-1.617,8.234-4.326
				C501.333,384.548,501.747,381.095,500.576,378.022z M117.933,330.331l-19.05-19.051c-3.905-3.904-10.237-3.904-14.143,0
				c-3.905,3.905-3.905,10.237,0,14.143l25.395,25.395l-7.904,20.764h-76.95l96.226-252.517l38.47,100.81L117.933,330.331z
				 M260.768,371.582v-28.439l35.071-35.071c3.905-3.905,3.905-10.237,0-14.143c-3.906-3.904-10.236-3.904-14.143,0l-20.929,20.929
				V243c0-5.522-4.478-10-10-10c-5.523,0-10,4.478-10,10v95.995c0,0.003,0,0.007,0,0.01v32.577H123.639L250.769,38.075
				l127.129,333.507H260.768z M399.305,371.581L399.305,371.581l-7.776-20.427l25.732-25.732c3.905-3.905,3.905-10.237,0-14.143
				c-3.906-3.904-10.236-3.904-14.143,0l-19.387,19.387l-41.94-110.184l38.703-101.418l96.228,252.517H399.305z"/>
			<path d="M240.769,194v18c0,5.522,4.477,10,10,10c5.522,0,10-4.478,10-10v-18c0-5.522-4.478-10-10-10
				C245.245,184,240.769,188.478,240.769,194z"/>
			<path d="M250.769,469c-5.523,0-10,4.478-10,10v13c0,5.522,4.477,10,10,10c5.522,0,10-4.478,10-10v-13
				C260.768,473.478,256.291,469,250.769,469z"/>
			<path d="M213.839,247.929c-3.905-3.904-10.237-3.904-14.143,0c-3.905,3.905-3.905,10.237,0,14.143l14,14
				c1.953,1.952,4.512,2.929,7.071,2.929c2.559,0,5.119-0.977,7.071-2.929c3.905-3.905,3.905-10.237,0-14.143L213.839,247.929z"/>
			<path d="M370.5,234.755V265c0,5.522,4.478,10,10,10c5.522,0,10-4.478,10-10v-30.245c0-5.522-4.478-10-10-10
				C374.979,224.755,370.5,229.232,370.5,234.755z"/>
			<path d="M121.5,224.755c-5.523,0-10,4.478-10,10V265c0,5.522,4.477,10,10,10s10-4.478,10-10v-30.245
				C131.501,229.233,127.024,224.755,121.5,224.755z"/>
		</g>
	</g>
</g>
<g>
</g>
<g>
</g>
<g>
</g>
<g>
</g>
<g>
</g>
<g>
</g>
<g>
</g>
<g>
</g>
<g>
</g>
<g>
</g>
<g>
</g>
<g>
</g>
<g>
</g>
<g>
</g>
<g>
</g>
</svg>
