<?xml version="1.0" encoding="iso-8859-1"?>
<!-- Generator: Adobe Illustrator 19.0.0, SVG Export Plug-In . SVG Version: 6.00 Build 0)  -->
<svg version="1.1" id="Layer_1" xmlns="http://www.w3.org/2000/svg" xmlns:xlink="http://www.w3.org/1999/xlink" x="0px" y="0px"
	 viewBox="0 0 502 502" style="enable-background:new 0 0 502 502;" xml:space="preserve">
<g>
	<g>
		<g>
			<path d="M485.911,203.652c0-5.523-4.478-10-10-10H124.282l339.648-91.008c5.335-1.429,8.501-6.913,7.071-12.248L448.766,7.412
				c-0.687-2.562-2.362-4.746-4.659-6.072c-2.296-1.326-5.027-1.686-7.588-0.999L23.503,111.008
				c-5.335,1.429-8.501,6.913-7.071,12.248l21.895,81.713V492c0,5.523,4.478,10,10,10h427.585c5.522,0,10-4.477,10-10
				L485.911,203.652L485.911,203.652z M385.473,213.652l21.681,21.657l44.208,44.16h-81.177v0.001l-65.89-65.818H385.473z
				 M275.995,213.652l65.89,65.818h-80.996l-65.89-65.818H275.995z M166.699,213.652l65.89,65.818h-81.177l-65.89-65.818H166.699z
				 M123.111,279.47H58.326v-64.715l4.082,4.078L123.111,279.47z M449.095,85.913l-62.596,16.772l45.823-79.368L449.095,85.913z
				 M327.358,50.296l78.427-21.015l-30.963,53.63l-15.643,27.095l-78.427,21.015l34.827-60.323L327.358,50.296z M221.785,78.584
				l78.251-20.967L265.21,117.94l-11.779,20.402l-78.252,20.967l30.963-53.63L221.785,78.584z M116.038,106.919l78.428-21.015
				l-30.963,53.63l-15.643,27.095l-78.428,21.015l30.963-53.63L116.038,106.919z M38.338,127.739l50.38-13.5l-36.881,63.879
				L38.338,127.739z M465.911,482H58.326V299.47h407.585V482z M465.911,265.734l-52.138-52.082h52.138V265.734z"/>
			<path d="M373.706,348.938h13.824c5.522,0,10-4.477,10-10s-4.478-10-10-10h-13.824c-5.522,0-10,4.477-10,10
				S368.184,348.938,373.706,348.938z"/>
			<path d="M108.07,348.938h231.074c5.522,0,10-4.477,10-10s-4.478-10-10-10H108.07c-5.522,0-10,4.477-10,10
				S102.547,348.938,108.07,348.938z"/>
			<path d="M108.07,398.313h279.46c5.522,0,10-4.477,10-10s-4.477-10-10-10H108.07c-5.522,0-10,4.477-10,10
				S102.548,398.313,108.07,398.313z"/>
			<path d="M108.07,447.688h216.262c5.522,0,10-4.477,10-10s-4.478-10-10.001-10H108.07c-5.522,0-10,4.477-10,10
				S102.548,447.688,108.07,447.688z"/>
		</g>
	</g>
</g>
<g>
</g>
<g>
</g>
<g>
</g>
<g>
</g>
<g>
</g>
<g>
</g>
<g>
</g>
<g>
</g>
<g>
</g>
<g>
</g>
<g>
</g>
<g>
</g>
<g>
</g>
<g>
</g>
<g>
</g>
</svg>
