<?xml version="1.0" encoding="iso-8859-1"?>
<!-- Generator: Adobe Illustrator 19.0.0, SVG Export Plug-In . SVG Version: 6.00 Build 0)  -->
<svg version="1.1" id="Layer_1" xmlns="http://www.w3.org/2000/svg" xmlns:xlink="http://www.w3.org/1999/xlink" x="0px" y="0px"
	 viewBox="0 0 502.012 502.012" style="enable-background:new 0 0 502.012 502.012;" xml:space="preserve">
<g>
	<g>
		<g>
			<path d="M465.703,37.5C438.831,10.628,401.111-2.021,359.507,1.886c-40.905,3.839-80.777,23.296-112.27,54.789
				c-33.061,33.06-52.664,74.845-55.2,117.658c-3.664,61.868-29.453,119.711-72.618,162.875l-5.89,5.891
				c-0.002,0.002-0.003,0.003-0.005,0.005L2.929,453.698c-3.905,3.905-3.905,10.236,0,14.142l30.053,30.053
				c1.876,1.875,4.419,2.929,7.071,2.929c2.652,0,5.196-1.054,7.071-2.929L157.72,387.298c0,0,0,0,0.001-0.001l3.478-3.479
				c43.71-43.71,102.68-69.481,166.046-72.566c42.753-2.081,86.23-22.232,119.285-55.287c31.492-31.493,50.95-71.364,54.788-112.27
				C505.223,102.087,492.574,64.372,465.703,37.5z M40.053,476.68l-15.911-15.911l96.453-96.453l15.911,15.911L40.053,476.68z
				 M432.387,241.824c-29.585,29.585-68.263,47.61-106.115,49.453c-66.604,3.243-128.752,29.774-175.589,74.843l-15.949-15.949
				c45.923-46.5,73.349-108.458,77.269-174.655c2.214-37.371,20.211-75.532,49.378-104.698
				c57.721-57.72,143.033-66.32,190.181-19.174C498.707,98.79,490.106,184.105,432.387,241.824z"/>
			<path d="M357.893,36.506c-31.6,3.481-62.573,18.969-87.215,43.609c-24.641,24.641-40.128,55.614-43.609,87.214
				c-3.572,32.425,5.836,61.659,26.491,82.314c17.787,17.787,41.932,27.232,69.002,27.232c4.364,0,8.81-0.246,13.312-0.742
				c31.601-3.481,62.574-18.969,87.215-43.609c24.641-24.641,40.128-55.614,43.609-87.214c3.572-32.425-5.836-61.658-26.491-82.313
				C419.551,42.341,390.32,32.935,357.893,36.506z M446.818,143.12c-2.985,27.097-16.435,53.825-37.872,75.262
				c-25.286,25.287-57.176,38.504-86.191,38.503c-21.083-0.001-40.65-6.982-55.052-21.384
				c-13.406-13.406-20.38-31.285-21.282-50.698l60.645,60.645c1.953,1.953,4.512,2.929,7.071,2.929s5.118-0.977,7.071-2.929
				c3.905-3.905,3.905-10.237,0-14.142l-72.533-72.532c1.532-7.147,3.808-14.326,6.807-21.407l64.205,64.204
				c1.953,1.953,4.512,2.929,7.071,2.929s5.118-0.977,7.071-2.929c3.905-3.905,3.905-10.237,0-14.142l-68.632-68.631
				c3.657-5.816,7.835-11.474,12.521-16.896l66.611,66.611c1.953,1.953,4.512,2.929,7.071,2.929s5.118-0.976,7.071-2.929
				c3.905-3.905,3.905-10.237,0-14.143l-66.655-66.655c5.349-4.686,10.964-8.911,16.785-12.631l67.584,67.583
				c1.953,1.953,4.512,2.929,7.071,2.929s5.118-0.977,7.071-2.929c3.905-3.905,3.905-10.237,0-14.142l-63.263-63.263
				c7.594-3.277,15.392-5.747,23.273-7.346l69.124,69.124c1.953,1.953,4.512,2.929,7.071,2.929s5.118-0.976,7.071-2.929
				c3.905-3.905,3.905-10.237,0-14.143L376.66,55.954c19.475,1.159,36.64,8.425,49.4,21.186
				C442.341,93.416,449.712,116.849,446.818,143.12z"/>
			<path d="M412.992,151.186c-3.905-3.905-10.235-3.905-14.143,0c-3.905,3.905-3.905,10.237,0,14.142l10.227,10.227
				c1.953,1.953,4.512,2.929,7.071,2.929c2.559,0,5.118-0.977,7.071-2.929c3.905-3.905,3.905-10.237,0-14.142L412.992,151.186z"/>
			<path d="M381.305,177.201c-3.906-3.905-10.238-3.905-14.143,0c-3.905,3.905-3.905,10.237,0,14.142l10.228,10.227
				c1.953,1.953,4.512,2.929,7.071,2.929s5.119-0.977,7.071-2.929c3.905-3.905,3.905-10.237,0-14.142L381.305,177.201z"/>
			<path d="M355.459,209.056c-3.906-3.905-10.236-3.905-14.143,0c-3.905,3.905-3.905,10.237,0,14.143l10.228,10.228
				c1.953,1.953,4.512,2.929,7.071,2.929s5.118-0.976,7.071-2.929c3.905-3.905,3.905-10.237,0-14.143L355.459,209.056z"/>
		</g>
	</g>
</g>
<g>
</g>
<g>
</g>
<g>
</g>
<g>
</g>
<g>
</g>
<g>
</g>
<g>
</g>
<g>
</g>
<g>
</g>
<g>
</g>
<g>
</g>
<g>
</g>
<g>
</g>
<g>
</g>
<g>
</g>
</svg>
